<?xml version="1.0" encoding="UTF-8"?> <svg xmlns="http://www.w3.org/2000/svg" width="153" height="30" viewBox="0 0 153 30" fill="none"><path d="M85.5045 5.74297L85.4381 5.9915H80.7622L80.8752 5.56924C81.0579 4.88637 81.0183 4.41615 80.7578 4.17097C80.556 3.98047 80.0672 3.75374 78.8845 3.75374H73.9598C73.0831 3.75374 72.4217 3.80975 71.9943 3.92043C71.6148 4.01937 71.3255 4.21659 71.1099 4.5228C70.8726 4.85921 70.6459 5.4277 70.4357 6.21219L69.4052 10.0602C69.2141 10.7732 69.1598 11.3122 69.2443 11.6627C69.3157 11.9609 69.4843 12.1494 69.775 12.2564C70.1317 12.3875 70.6875 12.4539 71.4274 12.4539H76.3517C77.0886 12.4539 77.6713 12.3989 78.0839 12.2902C78.4631 12.191 78.7611 12.0085 78.9955 11.7318C79.2399 11.4437 79.443 11.0027 79.5989 10.4211L79.6653 10.1725H84.3429L84.2273 10.5965C83.831 12.0481 83.358 13.1827 82.8216 13.9689C82.2657 14.7839 81.4913 15.3702 80.5208 15.7116C79.5825 16.041 78.2841 16.208 76.6615 16.208H69.5118C67.9553 16.208 66.8077 16.0333 66.0035 15.674C65.1473 15.2917 64.6277 14.641 64.459 13.7405C64.2995 12.8926 64.4128 11.7697 64.805 10.3064L65.9844 5.90262C66.4189 4.35242 66.9506 3.14533 67.5661 2.31087C68.1993 1.45259 69.0395 0.843512 70.0629 0.500738C71.0539 0.16836 72.3939 -9.02849e-06 74.046 -9.02849e-06H80.3596C81.7666 -9.02849e-06 82.9124 0.156285 83.7656 0.46485C84.6798 0.795885 85.3057 1.40664 85.6259 2.28035C85.9393 3.13561 85.8998 4.26824 85.5045 5.74297ZM103.797 0.0435922H108.354L104.019 16.2298H99.4617L101.198 9.74659H91.9928L90.2562 16.2298H85.7214L90.0568 0.0435922H94.5909L92.9982 5.99217H102.204L103.797 0.0435922ZM53.6324 12.4757H62.7698L61.764 16.2298H48.0929L52.4275 0.0435922H56.962L53.6324 12.4757ZM130.954 0.0435922L128.164 10.4586C127.879 11.5212 127.527 12.4244 127.117 13.1438C126.699 13.8767 126.18 14.4794 125.575 14.9345C124.971 15.389 124.251 15.723 123.436 15.9276C122.637 16.1282 121.69 16.2298 120.621 16.2298H113.566C111.447 16.2298 109.97 15.7327 109.179 14.7517C108.383 13.7656 108.248 12.2624 108.778 10.2849L111.521 0.0435922H116.056L113.361 10.1038C113.116 11.0171 113.128 11.6654 113.395 11.98C113.671 12.304 114.314 12.4757 115.254 12.4757H120.551C121.158 12.4757 121.674 12.3942 122.087 12.2339C122.485 12.0789 122.813 11.8237 123.088 11.4534C123.373 11.0711 123.605 10.5512 123.777 9.90826L126.419 0.0435922H130.954ZM152.694 5.25162L152.628 5.50015H147.96L148.064 5.08325C148.255 4.31855 147.994 4.09383 147.908 4.01971C147.754 3.8879 147.298 3.66687 145.966 3.66687H140.296C139.24 3.66687 138.445 3.87884 137.933 4.29775C137.414 4.72304 136.99 5.4978 136.673 6.60058L135.646 10.3298C135.483 11.0037 135.426 11.5198 135.481 11.8539C135.524 12.1168 135.677 12.2936 135.963 12.4106C136.316 12.5552 136.898 12.6283 137.694 12.6283H143.364C144.099 12.6283 144.693 12.5854 145.129 12.5009C145.529 12.4231 145.839 12.2923 146.051 12.1128C146.26 11.9364 146.421 11.6771 146.529 11.3431L146.86 10.1725H140.522L141.393 6.92156H152.27L151.172 11.0204C150.827 12.2946 150.34 13.3233 149.724 14.0789C149.098 14.8476 148.282 15.4061 147.3 15.7401C146.344 16.0651 145.128 16.2298 143.686 16.2298H135.915C134.543 16.2298 133.434 16.0343 132.62 15.6492C131.761 15.2421 131.198 14.5904 130.945 13.7116C130.702 12.8705 130.752 11.7932 131.091 10.5096L132.312 5.95126C132.714 4.52314 133.243 3.37206 133.885 2.52552C134.54 1.66255 135.383 1.02798 136.391 0.63959C137.378 0.25858 138.614 0.0657296 140.064 0.0657296H147.768C148.821 0.0657296 149.705 0.138845 150.397 0.282394C151.123 0.433993 151.712 0.704659 152.148 1.08735C152.603 1.48714 152.879 2.04591 152.969 2.74856C153.054 3.41097 152.962 4.25315 152.694 5.25162ZM19.9815 4.76731C19.8548 5.24122 19.6379 5.65477 19.2795 5.99217C18.9707 6.28296 18.6016 6.41008 18.1779 6.41008H10.7764L11.517 3.64507H19.0757C19.4877 3.64507 19.7693 3.73999 19.9144 3.92748C20.0586 4.11329 20.0811 4.39569 19.9815 4.76731ZM18.8695 11.0707C18.7565 11.5118 18.614 11.8452 18.4608 12.0649C18.3264 12.2564 18.1216 12.3919 17.8346 12.4791C17.5088 12.5783 17.0173 12.6283 16.373 12.6283H9.11128L9.91318 9.6614H17.49C18.1511 9.6614 18.5182 9.72345 18.7522 9.81636C18.9748 9.90457 19.0425 10.0203 19.019 10.2769C18.9996 10.4945 18.9546 10.7384 18.8695 11.0707ZM23.3024 8.72833C23.0815 8.3443 22.7241 8.01427 22.2353 7.74294C22.7016 7.52728 23.0899 7.25595 23.3949 6.93095C23.8619 6.43288 24.2501 5.5907 24.5807 4.35712C24.8519 3.34456 24.8378 2.50473 24.5384 1.8611C24.233 1.2044 23.6557 0.727464 22.823 0.444055C22.0446 0.178421 21.0174 0.0435922 19.7703 0.0435922H7.94732L3.6123 16.2298H16.3998C17.6589 16.2298 18.7538 16.0722 19.654 15.7612C20.5769 15.4426 21.3503 14.9184 21.9534 14.2033C22.5484 13.497 23.005 12.5599 23.3108 11.4189C23.6393 10.1903 23.637 9.31024 23.3024 8.72833ZM34.0878 8.72095L38.0789 3.84262L39.3555 8.72095H34.0878ZM35.9407 0.0435922L22.7271 16.2298H28.0789L31.2094 12.3224H40.2935L41.3082 16.2298H46.5202L42.0475 0.0435922H35.9407Z" fill="#1B365D"></path><path d="M12.5873 29.7186H20.1004L22.2678 21.6252H14.755L12.5873 29.7186ZM23.2671 29.7186H45.8473L48.0154 21.6252H25.4348L23.2671 29.7186ZM84.2768 21.6252L82.1091 29.7186H146.273L148.441 21.6252H84.2768ZM49.0144 29.7186H78.9424L81.1101 21.6252H51.182L49.0144 29.7186ZM6.33339 29.7186H9.50042L11.6681 21.6252H8.5014L6.33339 29.7186ZM2.16767 21.6252H5.33437L3.16669 29.7186H0L2.16767 21.6252Z" fill="#F0143D"></path><path d="M119.797 22.9819H121.133L119.687 28.3774H118.352L119.797 22.9819ZM131.318 22.9819H132.653L131.208 28.3774H128.916L126.717 24.0559H126.533L125.375 28.3774H124.04L125.485 22.9819H127.73L129.975 27.3052H130.16L131.318 22.9819ZM115.031 23.6832C115.131 23.9542 115.116 24.3322 114.986 24.8172H113.602C113.678 24.5335 113.653 24.3332 113.528 24.2155C113.403 24.0978 113.159 24.0388 112.797 24.0388H111.084C110.767 24.0388 110.529 24.0596 110.371 24.1005C110.213 24.1417 110.088 24.2269 109.998 24.356C109.907 24.4848 109.823 24.6935 109.746 24.9802L109.388 26.3181C109.316 26.5868 109.297 26.7914 109.331 26.9329C109.365 27.0751 109.451 27.171 109.588 27.2217C109.726 27.2723 109.931 27.2975 110.203 27.2975H111.916C112.183 27.2975 112.394 27.2777 112.548 27.2368C112.702 27.1962 112.828 27.1194 112.924 27.0053C113.021 26.8916 113.098 26.7246 113.157 26.5046H114.542C114.407 26.9993 114.25 27.378 114.07 27.6423C113.89 27.9059 113.642 28.093 113.327 28.2037C113.012 28.3144 112.577 28.3697 112.023 28.3697H109.537C109.017 28.3697 108.627 28.3114 108.364 28.1943C108.103 28.0773 107.946 27.8814 107.894 27.6067C107.843 27.3323 107.883 26.9513 108.013 26.4643L108.423 24.9326C108.57 24.4067 108.748 24.0032 108.954 23.7228C109.161 23.4428 109.432 23.2466 109.766 23.1345C110.1 23.0228 110.55 22.9668 111.113 22.9668H113.309C113.787 22.9668 114.169 23.0178 114.454 23.1215C114.74 23.2244 114.932 23.4116 115.031 23.6832ZM141.725 24.6462C141.781 24.4225 141.751 24.2601 141.634 24.1595C141.516 24.0589 141.266 24.0089 140.883 24.0089H138.911C138.514 24.0089 138.215 24.0907 138.015 24.2544C137.815 24.4184 137.656 24.7045 137.539 25.113L137.181 26.4114C137.119 26.6656 137.099 26.8591 137.121 26.9909C137.143 27.1234 137.222 27.2176 137.36 27.274C137.497 27.3303 137.713 27.3582 138.006 27.3582H139.977C140.242 27.3582 140.454 27.3427 140.613 27.3119C140.773 27.2807 140.898 27.227 140.987 27.1516C141.077 27.0754 141.144 26.9688 141.189 26.8309L141.374 26.1705H139.168L139.424 25.2137H142.965L142.58 26.6522C142.464 27.0815 142.303 27.4209 142.098 27.6721C141.894 27.9233 141.631 28.1038 141.309 28.2134C140.987 28.3228 140.58 28.3774 140.09 28.3774H137.387C136.925 28.3774 136.559 28.3137 136.291 28.1866C136.022 28.0598 135.849 27.8593 135.77 27.5859C135.692 27.3126 135.709 26.9624 135.822 26.5348L136.247 24.9497C136.383 24.4667 136.559 24.083 136.774 23.799C136.99 23.5149 137.263 23.3089 137.595 23.1812C137.926 23.0534 138.338 22.9893 138.83 22.9893H141.509C141.869 22.9893 142.166 23.0141 142.4 23.0624C142.633 23.1114 142.819 23.1959 142.955 23.316C143.092 23.4361 143.174 23.6041 143.202 23.8204C143.23 24.0371 143.199 24.3124 143.11 24.6462H141.725ZM100.138 25.9995L101.779 23.9935H101.842L102.367 25.9995H100.138ZM101.084 22.9819L96.6792 28.3774H98.2381L99.327 27.0184H102.632L102.985 28.3774H104.554L103.064 22.9819H101.084ZM92.8675 24.8789C92.7847 25.1737 92.6694 25.385 92.5229 25.5125C92.3764 25.6396 92.1629 25.7033 91.8826 25.7033H89.0921L89.5336 24.0542H92.3245C92.6134 24.0542 92.7961 24.1179 92.8722 24.2454C92.948 24.3725 92.9467 24.5834 92.8675 24.8789ZM94.0613 23.3623C93.9242 23.2227 93.7452 23.1241 93.5233 23.0675C93.3017 23.0101 93.0348 22.9819 92.7234 22.9819H88.4856L87.04 28.3774H88.3834L88.8128 26.7759H91.3952C91.776 26.7759 92.0321 26.836 92.1629 26.956C92.2933 27.0764 92.3231 27.2703 92.2514 27.5386L92.0271 28.3774H93.3701L93.6701 27.2576C93.7268 27.0452 93.7305 26.8776 93.6808 26.7558C93.6309 26.6337 93.5615 26.5475 93.4723 26.4965C93.3828 26.4462 93.2299 26.3758 93.013 26.2862C93.3014 26.143 93.5467 25.9659 93.7492 25.756C93.9514 25.545 94.1029 25.2529 94.2025 24.8796C94.3031 24.5053 94.3386 24.1934 94.3098 23.9448C94.2803 23.6963 94.1978 23.5025 94.0613 23.3623Z" fill="white"></path></svg> 